<svg width="100" height="101" viewBox="0 0 100 101" fill="none" xmlns="http://www.w3.org/2000/svg">
    <style>
        @media (prefers-color-scheme: dark) {
            path {
                fill: #ffffff !important;
            }
        }
    </style>

    <path d="M74 80.426C77.3137 80.426 80 77.7397 80 74.426V30.426L90 20.426V82.426C90 86.8443 86.4183 90.426 82 90.426H20L30 80.426H74Z" fill="black"/>
    <path d="M70 75.426C72.7614 75.426 75 73.1874 75 70.426V30.426L65 40.426V62.426C65 64.0829 63.6569 65.426 62 65.426H40L30 75.426H70Z" fill="black"/>
    <path d="M70 25.426H0L10 35.426H22C23.6569 35.426 25 36.7692 25 38.426V70.426L35 60.426V35.426H60L70 25.426Z" fill="black"/>
</svg>
